<mxfile host="app.diagrams.net" agent="Mozilla/5.0 (Windows NT 10.0; Win64; x64) AppleWebKit/537.36 (KHTML, like Gecko) Chrome/136.0.0.0 Safari/537.36" version="27.0.5">
  <diagram name="第 1 页" id="KZ4WgYnThCcQkKZYtW-M">
    <mxGraphModel dx="1426" dy="743" grid="1" gridSize="10" guides="1" tooltips="1" connect="1" arrows="1" fold="1" page="1" pageScale="1" pageWidth="827" pageHeight="1169" math="0" shadow="0">
      <root>
        <mxCell id="0" />
        <mxCell id="1" parent="0" />
        <mxCell id="-2S6IYgZK91o98YEmT3c-9" value="" style="html=1;verticalAlign=bottom;startArrow=circle;startFill=1;endArrow=open;startSize=6;endSize=8;curved=0;rounded=0;" edge="1" parent="1">
          <mxGeometry width="80" relative="1" as="geometry">
            <mxPoint x="120" y="120" as="sourcePoint" />
            <mxPoint x="120" y="180" as="targetPoint" />
          </mxGeometry>
        </mxCell>
        <mxCell id="-2S6IYgZK91o98YEmT3c-10" value="登录账户" style="rounded=1;whiteSpace=wrap;html=1;" vertex="1" parent="1">
          <mxGeometry x="60" y="180" width="120" height="60" as="geometry" />
        </mxCell>
        <mxCell id="-2S6IYgZK91o98YEmT3c-13" style="edgeStyle=orthogonalEdgeStyle;rounded=0;orthogonalLoop=1;jettySize=auto;html=1;" edge="1" parent="1" source="-2S6IYgZK91o98YEmT3c-11">
          <mxGeometry relative="1" as="geometry">
            <mxPoint x="120" y="440" as="targetPoint" />
            <Array as="points">
              <mxPoint x="120" y="400" />
              <mxPoint x="121" y="400" />
            </Array>
          </mxGeometry>
        </mxCell>
        <mxCell id="-2S6IYgZK91o98YEmT3c-14" value="正确" style="edgeLabel;html=1;align=center;verticalAlign=middle;resizable=0;points=[];" vertex="1" connectable="0" parent="-2S6IYgZK91o98YEmT3c-13">
          <mxGeometry x="-0.1112" y="-1" relative="1" as="geometry">
            <mxPoint as="offset" />
          </mxGeometry>
        </mxCell>
        <mxCell id="-2S6IYgZK91o98YEmT3c-16" style="edgeStyle=orthogonalEdgeStyle;rounded=0;orthogonalLoop=1;jettySize=auto;html=1;exitX=1;exitY=0.5;exitDx=0;exitDy=0;entryX=1;entryY=0.5;entryDx=0;entryDy=0;" edge="1" parent="1" source="-2S6IYgZK91o98YEmT3c-19" target="-2S6IYgZK91o98YEmT3c-10">
          <mxGeometry relative="1" as="geometry">
            <mxPoint x="240" y="400" as="targetPoint" />
            <Array as="points">
              <mxPoint x="440" y="320" />
              <mxPoint x="440" y="210" />
            </Array>
          </mxGeometry>
        </mxCell>
        <mxCell id="-2S6IYgZK91o98YEmT3c-17" value="否，重新登录" style="edgeLabel;html=1;align=center;verticalAlign=middle;resizable=0;points=[];" vertex="1" connectable="0" parent="-2S6IYgZK91o98YEmT3c-16">
          <mxGeometry x="0.1692" y="-3" relative="1" as="geometry">
            <mxPoint x="94" y="53" as="offset" />
          </mxGeometry>
        </mxCell>
        <mxCell id="-2S6IYgZK91o98YEmT3c-20" style="edgeStyle=orthogonalEdgeStyle;rounded=0;orthogonalLoop=1;jettySize=auto;html=1;exitX=1;exitY=0.5;exitDx=0;exitDy=0;exitPerimeter=0;entryX=0;entryY=0.5;entryDx=0;entryDy=0;" edge="1" parent="1" source="-2S6IYgZK91o98YEmT3c-11" target="-2S6IYgZK91o98YEmT3c-19">
          <mxGeometry relative="1" as="geometry" />
        </mxCell>
        <mxCell id="-2S6IYgZK91o98YEmT3c-21" value="不正确" style="edgeLabel;html=1;align=center;verticalAlign=middle;resizable=0;points=[];" vertex="1" connectable="0" parent="-2S6IYgZK91o98YEmT3c-20">
          <mxGeometry x="0.1556" y="3" relative="1" as="geometry">
            <mxPoint x="-8" as="offset" />
          </mxGeometry>
        </mxCell>
        <mxCell id="-2S6IYgZK91o98YEmT3c-11" value="账户密码是否正确" style="strokeWidth=2;html=1;shape=mxgraph.flowchart.decision;whiteSpace=wrap;" vertex="1" parent="1">
          <mxGeometry x="35" y="280" width="170" height="80" as="geometry" />
        </mxCell>
        <mxCell id="-2S6IYgZK91o98YEmT3c-12" style="edgeStyle=orthogonalEdgeStyle;rounded=0;orthogonalLoop=1;jettySize=auto;html=1;entryX=0.5;entryY=0;entryDx=0;entryDy=0;entryPerimeter=0;" edge="1" parent="1" source="-2S6IYgZK91o98YEmT3c-10" target="-2S6IYgZK91o98YEmT3c-11">
          <mxGeometry relative="1" as="geometry" />
        </mxCell>
        <mxCell id="-2S6IYgZK91o98YEmT3c-28" style="edgeStyle=orthogonalEdgeStyle;rounded=0;orthogonalLoop=1;jettySize=auto;html=1;entryX=0.5;entryY=0;entryDx=0;entryDy=0;exitX=0.5;exitY=1;exitDx=0;exitDy=0;" edge="1" parent="1" source="-2S6IYgZK91o98YEmT3c-15" target="-2S6IYgZK91o98YEmT3c-25">
          <mxGeometry relative="1" as="geometry">
            <mxPoint x="180" y="521" as="sourcePoint" />
            <mxPoint x="245" y="620" as="targetPoint" />
          </mxGeometry>
        </mxCell>
        <mxCell id="-2S6IYgZK91o98YEmT3c-15" value="登录完毕" style="rounded=1;whiteSpace=wrap;html=1;" vertex="1" parent="1">
          <mxGeometry x="60" y="440" width="120" height="60" as="geometry" />
        </mxCell>
        <mxCell id="-2S6IYgZK91o98YEmT3c-23" value="是" style="edgeStyle=orthogonalEdgeStyle;rounded=0;orthogonalLoop=1;jettySize=auto;html=1;exitX=0.5;exitY=1;exitDx=0;exitDy=0;" edge="1" parent="1" source="-2S6IYgZK91o98YEmT3c-19">
          <mxGeometry relative="1" as="geometry">
            <mxPoint x="345" y="440" as="targetPoint" />
          </mxGeometry>
        </mxCell>
        <mxCell id="-2S6IYgZK91o98YEmT3c-19" value="是否出现5次错误" style="rhombus;whiteSpace=wrap;html=1;" vertex="1" parent="1">
          <mxGeometry x="280" y="280" width="130" height="80" as="geometry" />
        </mxCell>
        <mxCell id="-2S6IYgZK91o98YEmT3c-24" value="账户锁定登录" style="rounded=1;whiteSpace=wrap;html=1;" vertex="1" parent="1">
          <mxGeometry x="285" y="440" width="120" height="60" as="geometry" />
        </mxCell>
        <mxCell id="-2S6IYgZK91o98YEmT3c-31" value="" style="edgeStyle=orthogonalEdgeStyle;rounded=0;orthogonalLoop=1;jettySize=auto;html=1;entryX=0.5;entryY=0;entryDx=0;entryDy=0;exitX=0.5;exitY=1;exitDx=0;exitDy=0;" edge="1" parent="1" source="-2S6IYgZK91o98YEmT3c-24" target="-2S6IYgZK91o98YEmT3c-25">
          <mxGeometry relative="1" as="geometry">
            <mxPoint x="345" y="500" as="sourcePoint" />
            <mxPoint x="245" y="620" as="targetPoint" />
          </mxGeometry>
        </mxCell>
        <mxCell id="-2S6IYgZK91o98YEmT3c-33" value="结束" style="edgeLabel;html=1;align=center;verticalAlign=middle;resizable=0;points=[];" vertex="1" connectable="0" parent="-2S6IYgZK91o98YEmT3c-31">
          <mxGeometry x="0.7364" y="-1" relative="1" as="geometry">
            <mxPoint as="offset" />
          </mxGeometry>
        </mxCell>
        <mxCell id="-2S6IYgZK91o98YEmT3c-25" value="" style="ellipse;html=1;shape=endState;fillColor=#000000;strokeColor=#ff0000;" vertex="1" parent="1">
          <mxGeometry x="230" y="620" width="30" height="30" as="geometry" />
        </mxCell>
      </root>
    </mxGraphModel>
  </diagram>
</mxfile>
